<svg xmlns="http://www.w3.org/2000/svg" viewBox="0 0 2000 2000">
  <g transform="matrix(4.950181, 0, 0, 4.950181, -906.28009, -663.389526)" style="">
    <rect x="181.093" y="132.026" width="408" height="408" stroke-width="1" style="stroke-width: 1; fill: rgb(24, 24, 24);" rx="99.717" ry="99.717"></rect>
    <g style="" transform="matrix(0.885254, 0, 0, 0.885254, 44.187626, 38.472507)">
      <path style="fill: rgb(255, 193, 7); stroke-width: 0.038; transform-box: fill-box; transform-origin: 50% 50%;" d="M 290.867 438.514 L 390.077 349.123 L 420.158 348.384 L 443.977 302.173 L 379.293 302.537 L 390.452 281.231 L 455.486 280.545 L 479.319 233.73 L 360.697 233.745 L 301.711 348.159 L 336.677 349.472 L 290.867 438.514 Z"></path>
      <path d="M 288.332 355.2 L 316.554 364.149 C 312.227 379.883 305.032 391.569 294.969 399.207 C 284.907 406.845 272.138 410.663 256.667 410.663 C 237.524 410.663 221.789 404.122 209.464 391.044 C 197.139 377.965 190.977 360.084 190.977 337.401 C 190.977 313.406 197.173 294.771 209.562 281.496 C 221.954 268.22 238.244 261.582 258.436 261.582 C 276.073 261.582 290.397 266.794 301.41 277.218 C 307.966 283.38 312.884 292.231 316.162 303.77 L 287.349 310.653 C 285.644 303.179 282.087 297.279 276.678 292.952 C 271.271 288.625 264.698 286.462 256.962 286.462 C 246.276 286.462 237.605 290.296 230.951 297.967 C 224.298 305.637 220.97 318.062 220.97 335.238 C 220.97 353.463 224.248 366.444 230.804 374.178 C 237.36 381.915 245.882 385.783 256.372 385.783 C 264.108 385.783 270.761 383.324 276.335 378.407 C 281.907 373.491 285.906 365.756 288.332 355.2 Z M 550.987 355.2 L 579.209 364.149 C 574.882 379.883 567.687 391.569 557.625 399.207 C 547.562 406.845 534.793 410.663 519.322 410.663 C 500.179 410.663 484.444 404.122 472.119 391.044 C 459.794 377.965 453.632 360.084 453.632 337.401 C 453.632 313.406 459.828 294.771 472.217 281.496 C 484.609 268.22 500.899 261.582 521.091 261.582 C 538.727 261.582 553.051 266.794 564.066 277.218 C 570.622 283.38 575.539 292.231 578.817 303.77 L 550.003 310.653 C 548.299 303.179 544.742 297.279 539.334 292.952 C 533.925 288.625 527.352 286.462 519.617 286.462 C 508.931 286.462 500.261 290.296 493.606 297.967 C 486.952 305.637 483.625 318.062 483.625 335.238 C 483.625 353.463 486.903 366.444 493.459 374.178 C 500.015 381.915 508.537 385.783 519.027 385.783 C 526.762 385.783 533.416 383.324 538.99 378.407 C 544.562 373.491 548.561 365.756 550.987 355.2 Z" style="fill: rgb(255, 255, 255); text-wrap-mode: nowrap; stroke: rgb(255, 255, 255); stroke-width: 11.4099px; stroke-miterlimit: 30; transform-box: fill-box; transform-origin: 50% 50%;"></path>
    </g>
  </g>
</svg>